<svg viewBox="0 0 800 800" xmlns="http://www.w3.org/2000/svg">
  <defs>
    <filter id="neon" x="-50%" y="-50%" width="200%" height="200%">
      <feDropShadow dx="0" dy="0" stdDeviation="3" flood-color="#39ff14"/>
    </filter>
  </defs>

  <rect width="100%" height="100%" fill="#000000"/>

  <!-- Rachaduras em neon verde -->
  <path d="M100,100 L150,130 L180,90 L220,140 L270,100 L310,160 L350,120 L400,180"
        stroke="#39ff14" stroke-width="2" fill="none" filter="url(#neon)"/>

  <path d="M200,400 L250,370 L300,410 L340,370 L400,420 L450,390 L500,440"
        stroke="#39ff14" stroke-width="2" fill="none" filter="url(#neon)"/>

  <path d="M600,200 L580,240 L620,270 L590,310 L630,340"
        stroke="#39ff14" stroke-width="2" fill="none" filter="url(#neon)"/>

  <path d="M100,700 L140,660 L180,710 L230,670 L280,720"
        stroke="#39ff14" stroke-width="2" fill="none" filter="url(#neon)"/>

  <!-- Rachaduras menores -->
  <path d="M700,100 L680,130 L720,160" stroke="#39ff14" stroke-width="1.5" fill="none" filter="url(#neon)"/>
  <path d="M300,600 L350,640 L390,600" stroke="#39ff14" stroke-width="1.5" fill="none" filter="url(#neon)"/>
</svg>
